<?xml version="1.0" encoding="iso-8859-1"?>

 <!DOCTYPE svg PUBLIC "-//W3C//DTD SVG 1.1//EN" "http://www.w3.org/Graphics/SVG/1.1/DTD/svg11.dtd"> 
<svg  version="1.1" id="Capa_1" xmlns="http://www.w3.org/2000/svg" xmlns:xlink="http://www.w3.org/1999/xlink" 
viewBox="0 0 40.834 40.833"
	 xml:space="preserve">
<g fill="none" >
	<path class="path" d="M40.648,12.433l-2.926-0.428c0,0-2.894-2.313-4.324,0.5c-0.263,0.517-0.285,1.708-0.285,1.708
		c0.188,0.213,1.009,8.95-16.061,6.771c-2.801-0.358-7.988-2.213-11.046,0.019c-1.55-2.222-1.881-5.425-1.881-5.425
		c-0.705,2.531,0.431,5.101,1.035,6.214c-0.231,0.278-0.449,0.582-0.638,0.939c-0.188,0.355-0.444,0.89-0.541,1.887
		c0,0-1.875-0.463-1.812,1.247c0,0,0.042,1.851,0.273,2.812C0.894,28.78,0,28.897,0,29.023c0,0.387,8.395,0.7,18.75,0.7
		c10.355,0,18.75-0.313,18.75-0.7c0-0.173-1.693-0.332-4.482-0.454c-0.121-0.187-0.312-0.381-0.639-0.564
		c0,0-1.271-1.529-0.127-1.639c0,0,0.604,0.071,1.145-0.785c0,0,0.51-0.32,0.766,0.107c0,0-0.031,0.536-0.51,0.678
		c0,0-0.35,1.034,0.572,1.71c0,0,0.986-0.321,1.146-2.138c0,0,0.35-1.356-0.893-1.747c-0.047-0.017-0.067-0.021-0.107-0.034
		c0.165-0.326,1.46-2.956,1.223-5.025c0,0,1.907,0.785,1.367-1.53c0,0-1.051-1.89-0.031-2.423c0,0,1.973,0.392,3.146-1.177
		C40.077,14,41.286,12.715,40.648,12.433z M3.636,27.966c0,0-0.51-1.815,0.191-1.604c0,0,0.984,0.355,1.525,0.249
		c0,0,0.196,1.1,0.775,1.891c-0.691,0.023-1.346,0.051-1.936,0.076C4.112,28.378,3.951,28.158,3.636,27.966z M18.753,28.32
		c-3.652,0-7.05,0.04-9.934,0.106c-0.041-0.208-0.178-0.411-0.51-0.531c0,0-1.209-0.179-1.334-0.783c0,0,2.002-1.034,2.607-2.209
		c0,0,0.902-0.319,5.531,0.997c3.68,1.045,8.874,1.248,15.17,0.748c0,0-0.018,0.993,0.66,1.841
		C27.666,28.383,23.413,28.32,18.753,28.32z"  fill="none" stroke-width="0.7"/>
</g>
</svg> 






